<?xml version="1.0" standalone="no"?>
<!DOCTYPE svg PUBLIC "-//W3C//DTD SVG 1.1//EN" "http://www.w3.org/Graphics/SVG/1.1/DTD/svg11.dtd">
<svg width="100%" height="100%" viewBox="0 0 1800 266" version="1.1" xmlns="http://www.w3.org/2000/svg" xmlns:xlink="http://www.w3.org/1999/xlink" xml:space="preserve" style="fill-rule:evenodd;clip-rule:evenodd;stroke-linejoin:round;stroke-miterlimit:1.41421;">
    <g transform="matrix(1,0,0,1,-102.501,-619.619)">
        <g id="Layer 1" transform="matrix(4.16667,0,0,4.16667,0,0)">
            <path d="M456.6,166.561L456.6,148.709L416.459,148.709C416.414,148.709 416.362,148.713 416.303,148.713L415.961,148.713C410.756,148.713 406.073,150.975 402.836,154.563C400.004,157.701 398.28,161.848 398.28,166.395L398.28,167.961C398.559,171.285 399.741,174.346 401.606,176.895C401.635,176.939 401.664,176.988 401.694,177.032C401.928,177.334 402.157,177.629 402.407,177.918C404.604,180.526 407.553,182.489 410.912,183.479C412.495,183.944 414.174,184.192 415.903,184.192L438.92,184.192C441.664,184.192 443.895,186.389 443.973,189.114C443.895,191.633 441.987,193.704 439.516,193.997L415.952,193.997C413.881,193.997 412.104,192.743 411.323,190.95C411.284,190.872 411.245,190.784 411.225,190.696C411.205,190.647 411.186,190.598 411.17,190.549C411.02,190.096 410.926,189.618 410.916,189.114C410.916,189.143 410.916,189.182 410.912,189.202C410.912,189.114 410.903,189.026 410.903,188.938L410.903,188.772L398.276,188.772L398.276,206.629L414.819,206.629C415.194,206.653 415.58,206.663 415.961,206.663L438.92,206.663C447.748,206.663 455.092,200.155 456.391,191.682C456.528,190.848 456.596,189.983 456.596,189.114C456.596,187.909 456.463,186.731 456.215,185.598C455.61,182.684 454.272,180.032 452.416,177.847C449.174,174.012 444.33,171.565 438.92,171.565L438.881,171.565L415.961,171.565L415.912,171.565L415.903,171.565C413.373,171.565 411.284,169.7 410.912,167.281L410.912,166.395C410.912,163.612 413.178,161.34 415.961,161.34L438.92,161.34C439.379,161.34 439.829,161.405 440.248,161.524C440.268,161.524 440.278,161.529 440.297,161.534C440.428,161.571 440.551,161.612 440.672,161.659C440.698,161.663 440.711,161.675 440.737,161.682C440.858,161.729 440.965,161.778 441.088,161.834C441.112,161.844 441.127,161.851 441.151,161.864C441.264,161.922 441.381,161.983 441.489,162.049C441.502,162.059 441.518,162.069 441.537,162.079C441.649,162.147 441.766,162.219 441.87,162.297C441.879,162.305 441.879,162.307 441.889,162.31C442.948,163.084 443.705,164.27 443.901,165.625C443.94,165.874 443.973,166.131 443.973,166.389L443.973,166.561L456.6,166.561" style="fill:rgb(86,160,213);fill-rule:nonzero;"/>
            <path d="M388.725,170.039L388.725,166.475L388.725,166.457C388.725,163.682 390.991,161.421 393.764,161.421L394.051,161.421L394.051,148.867L388.725,148.867L376.092,148.867L370.766,148.867L370.766,161.421L371.039,161.421C373.813,161.421 376.088,163.682 376.092,166.457L376.092,188.918C376.088,191.711 373.813,193.963 371.039,193.963L353.832,193.963C351.043,193.963 348.784,191.691 348.784,188.908L348.784,166.475C348.784,163.686 351.043,161.421 353.832,161.421L354.11,161.421L354.11,148.867L336.157,148.867L336.157,188.908C336.157,198.66 344.08,206.59 353.832,206.59L370.873,206.59L370.873,206.613L393.94,206.613L393.94,193.982L393.764,193.982C391,193.982 388.725,191.721 388.725,188.947L388.725,188.908L388.725,170.039" style="fill:rgb(86,160,213);fill-rule:nonzero;"/>
            <path d="M328.92,204.829C327.799,205.957 327.799,207.783 328.92,208.911L331.516,211.489C332.633,212.617 334.463,212.617 335.587,211.489L338.233,208.847C339.361,207.729 339.361,205.903 338.233,204.775L335.651,202.186C334.524,201.058 332.687,201.058 331.569,202.186L328.92,204.829" style="fill:rgb(86,160,213);fill-rule:nonzero;"/>
            <path d="M290.854,148.838C281.108,148.838 273.172,156.77 273.172,166.516L273.172,188.973C273.172,198.723 281.108,206.652 290.854,206.652L313.817,206.652C323.559,206.652 331.493,198.723 331.493,188.973L331.493,166.516C331.493,156.77 323.559,148.838 313.817,148.838L290.854,148.838M285.795,188.973L285.795,166.516C285.795,163.733 288.071,161.47 290.854,161.47L313.817,161.47C316.606,161.47 318.862,163.733 318.862,166.516L318.862,188.973C318.862,191.76 316.606,194.026 313.817,194.026L290.854,194.026C288.071,194.026 285.795,191.76 285.795,188.973" style="fill:rgb(86,160,213);fill-rule:nonzero;"/>
            <path d="M250.844,148.846L250.844,161.475L251.01,161.475C253.803,161.475 256.069,163.742 256.069,166.526L256.069,188.987C256.069,191.77 253.803,194.035 251.01,194.035L250.727,194.035L250.727,206.662L268.696,206.662L268.696,188.987L268.696,148.846L250.844,148.846" style="fill:rgb(86,160,213);fill-rule:nonzero;"/>
            <path d="M228.549,148.936L211.505,148.936L211.505,148.918L206.287,148.918L193.658,148.918L188.436,148.918L188.436,161.548L188.608,161.548C191.383,161.548 193.649,163.799 193.658,166.578L193.658,189.065C193.649,191.848 191.385,194.11 188.608,194.11L188.324,194.11L188.324,206.663L211.619,206.663L211.619,194.11L211.334,194.11C208.559,194.11 206.295,191.848 206.287,189.065L206.287,189.055L206.287,166.602C206.295,163.827 208.559,161.571 211.334,161.571L228.549,161.571C231.332,161.571 233.602,163.833 233.602,166.617L233.602,189.055L233.592,189.055C233.592,191.838 231.332,194.11 228.549,194.11L228.263,194.11L228.263,206.663L246.225,206.663L246.225,206.571L246.229,206.571L246.229,166.617C246.229,156.868 238.299,148.936 228.549,148.936" style="fill:rgb(86,160,213);fill-rule:nonzero;"/>
            <path d="M184.236,189.055L184.236,166.617C184.236,156.867 176.299,148.936 166.556,148.936L149.346,148.936C145.023,148.936 141.052,150.503 137.976,153.088C134.906,150.503 130.938,148.936 126.615,148.936L109.576,148.936L109.576,148.918L104.353,148.918L91.724,148.918L86.502,148.918L86.502,161.548L86.671,161.548C89.457,161.548 91.716,163.807 91.724,166.584L91.724,166.612L91.722,166.617L91.722,185.487L91.724,185.487L91.724,189.065C91.716,191.848 89.457,194.11 86.671,194.11L86.392,194.11L86.392,206.662L109.683,206.662L109.683,194.11L109.402,194.11C106.627,194.11 104.359,191.848 104.353,189.065L104.353,189.055L104.353,166.602C104.359,163.826 106.627,161.571 109.402,161.571L126.615,161.571C129.395,161.571 131.654,163.826 131.664,166.602L131.664,189.719C131.336,192.19 129.224,194.11 126.666,194.11L126.381,194.11L126.381,206.662L144.343,206.662L144.343,189.055L144.298,189.055L144.298,166.617L144.298,166.597C144.304,163.821 146.568,161.571 149.346,161.571L166.556,161.571C169.341,161.571 171.609,163.833 171.609,166.617L171.609,189.719C171.283,192.19 169.164,194.11 166.599,194.11L166.322,194.11L166.322,206.662L184.285,206.662L184.285,189.055L184.236,189.055" style="fill:rgb(86,160,213);fill-rule:nonzero;"/>
            <path d="M42.281,148.846C32.535,148.846 24.6,156.778 24.6,166.526L24.6,188.987C24.6,198.729 32.535,206.662 42.281,206.662L65.242,206.662C74.988,206.662 82.924,198.729 82.924,188.987L82.924,166.526C82.924,156.778 74.988,148.846 65.242,148.846L42.281,148.846M37.23,188.987L37.23,166.526C37.23,163.742 39.496,161.475 42.281,161.475L65.242,161.475C68.023,161.475 70.294,163.742 70.294,166.526L70.294,188.987C70.294,191.77 68.023,194.035 65.242,194.035L42.281,194.035C39.496,194.035 37.23,191.77 37.23,188.987" style="fill:rgb(86,160,213);fill-rule:nonzero;"/>
            <path d="M456.6,166.561L456.6,148.709L416.459,148.709C416.414,148.709 416.362,148.713 416.303,148.713L415.961,148.713C410.756,148.713 406.073,150.975 402.836,154.563C400.004,157.701 398.28,161.848 398.28,166.395L398.28,167.961C398.559,171.285 399.741,174.346 401.606,176.895C401.635,176.939 401.664,176.988 401.694,177.032C401.928,177.334 402.157,177.629 402.407,177.918C404.604,180.526 407.553,182.489 410.912,183.479C412.495,183.944 414.174,184.192 415.903,184.192L438.92,184.192C441.664,184.192 443.895,186.389 443.973,189.114C443.895,191.633 441.987,193.704 439.516,193.997L415.952,193.997C413.881,193.997 412.104,192.743 411.323,190.95C411.284,190.872 411.245,190.784 411.225,190.696C411.205,190.647 411.186,190.598 411.17,190.549C411.02,190.096 410.926,189.618 410.916,189.114C410.916,189.143 410.916,189.182 410.912,189.202C410.912,189.114 410.903,189.026 410.903,188.938L410.903,188.772L398.276,188.772L398.276,206.629L414.819,206.629C415.194,206.653 415.58,206.663 415.961,206.663L438.92,206.663C447.748,206.663 455.092,200.155 456.391,191.682C456.528,190.848 456.596,189.983 456.596,189.114C456.596,187.909 456.463,186.731 456.215,185.598C455.61,182.684 454.272,180.032 452.416,177.847C449.174,174.012 444.33,171.565 438.92,171.565L438.881,171.565L415.961,171.565L415.912,171.565L415.903,171.565C413.373,171.565 411.284,169.7 410.912,167.281L410.912,166.395C410.912,163.612 413.178,161.34 415.961,161.34L438.92,161.34C439.379,161.34 439.829,161.405 440.248,161.524C440.268,161.524 440.278,161.529 440.297,161.534C440.428,161.571 440.551,161.612 440.672,161.659C440.698,161.663 440.711,161.675 440.737,161.682C440.858,161.729 440.965,161.778 441.088,161.834C441.112,161.844 441.127,161.851 441.151,161.864C441.264,161.922 441.381,161.983 441.489,162.049C441.502,162.059 441.518,162.069 441.537,162.079C441.649,162.147 441.766,162.219 441.87,162.297C441.879,162.305 441.879,162.307 441.889,162.31C442.948,163.084 443.705,164.27 443.901,165.625C443.94,165.874 443.973,166.131 443.973,166.389L443.973,166.561L456.6,166.561" style="fill:rgb(86,160,213);fill-rule:nonzero;"/>
            <path d="M388.725,170.039L388.725,166.475L388.725,166.457C388.725,163.682 390.991,161.421 393.764,161.421L394.051,161.421L394.051,148.867L388.725,148.867L376.092,148.867L370.766,148.867L370.766,161.421L371.039,161.421C373.813,161.421 376.088,163.682 376.092,166.457L376.092,188.918C376.088,191.711 373.813,193.963 371.039,193.963L353.832,193.963C351.043,193.963 348.784,191.691 348.784,188.908L348.784,166.475C348.784,163.686 351.043,161.421 353.832,161.421L354.11,161.421L354.11,148.867L336.157,148.867L336.157,188.908C336.157,198.66 344.08,206.59 353.832,206.59L370.873,206.59L370.873,206.613L393.94,206.613L393.94,193.982L393.764,193.982C391,193.982 388.725,191.721 388.725,188.947L388.725,188.908L388.725,170.039" style="fill:rgb(86,160,213);fill-rule:nonzero;"/>
            <path d="M328.92,204.829C327.799,205.957 327.799,207.783 328.92,208.911L331.516,211.489C332.633,212.617 334.463,212.617 335.587,211.489L338.233,208.847C339.361,207.729 339.361,205.903 338.233,204.775L335.651,202.186C334.524,201.058 332.687,201.058 331.569,202.186L328.92,204.829" style="fill:rgb(86,160,213);fill-rule:nonzero;"/>
            <path d="M290.854,148.838C281.108,148.838 273.172,156.77 273.172,166.516L273.172,188.973C273.172,198.723 281.108,206.652 290.854,206.652L313.817,206.652C323.559,206.652 331.493,198.723 331.493,188.973L331.493,166.516C331.493,156.77 323.559,148.838 313.817,148.838L290.854,148.838M285.795,188.973L285.795,166.516C285.795,163.733 288.071,161.47 290.854,161.47L313.817,161.47C316.606,161.47 318.862,163.733 318.862,166.516L318.862,188.973C318.862,191.76 316.606,194.026 313.817,194.026L290.854,194.026C288.071,194.026 285.795,191.76 285.795,188.973" style="fill:rgb(86,160,213);fill-rule:nonzero;"/>
            <path d="M250.844,148.846L250.844,161.475L251.01,161.475C253.803,161.475 256.069,163.742 256.069,166.526L256.069,188.987C256.069,191.77 253.803,194.035 251.01,194.035L250.727,194.035L250.727,206.662L268.696,206.662L268.696,188.987L268.696,148.846L250.844,148.846" style="fill:rgb(86,160,213);fill-rule:nonzero;"/>
            <path d="M228.549,148.936L211.505,148.936L211.505,148.918L206.287,148.918L193.658,148.918L188.436,148.918L188.436,161.548L188.608,161.548C191.383,161.548 193.649,163.799 193.658,166.578L193.658,189.065C193.649,191.848 191.385,194.11 188.608,194.11L188.324,194.11L188.324,206.663L211.619,206.663L211.619,194.11L211.334,194.11C208.559,194.11 206.295,191.848 206.287,189.065L206.287,189.055L206.287,166.602C206.295,163.827 208.559,161.571 211.334,161.571L228.549,161.571C231.332,161.571 233.602,163.833 233.602,166.617L233.602,189.055L233.592,189.055C233.592,191.838 231.332,194.11 228.549,194.11L228.263,194.11L228.263,206.663L246.225,206.663L246.225,206.571L246.229,206.571L246.229,166.617C246.229,156.868 238.299,148.936 228.549,148.936" style="fill:rgb(86,160,213);fill-rule:nonzero;"/>
            <path d="M184.236,189.055L184.236,166.617C184.236,156.867 176.299,148.936 166.556,148.936L149.346,148.936C145.023,148.936 141.052,150.503 137.976,153.088C134.906,150.503 130.938,148.936 126.615,148.936L109.576,148.936L109.576,148.918L104.353,148.918L91.724,148.918L86.502,148.918L86.502,161.548L86.671,161.548C89.457,161.548 91.716,163.807 91.724,166.584L91.724,166.612L91.722,166.617L91.722,185.487L91.724,185.487L91.724,189.065C91.716,191.848 89.457,194.11 86.671,194.11L86.392,194.11L86.392,206.662L109.683,206.662L109.683,194.11L109.402,194.11C106.627,194.11 104.359,191.848 104.353,189.065L104.353,189.055L104.353,166.602C104.359,163.826 106.627,161.571 109.402,161.571L126.615,161.571C129.395,161.571 131.654,163.826 131.664,166.602L131.664,189.719C131.336,192.19 129.224,194.11 126.666,194.11L126.381,194.11L126.381,206.662L144.343,206.662L144.343,189.055L144.298,189.055L144.298,166.617L144.298,166.597C144.304,163.821 146.568,161.571 149.346,161.571L166.556,161.571C169.341,161.571 171.609,163.833 171.609,166.617L171.609,189.719C171.283,192.19 169.164,194.11 166.599,194.11L166.322,194.11L166.322,206.662L184.285,206.662L184.285,189.055L184.236,189.055" style="fill:rgb(86,160,213);fill-rule:nonzero;"/>
            <path d="M42.281,148.846C32.535,148.846 24.6,156.778 24.6,166.526L24.6,188.987C24.6,198.729 32.535,206.662 42.281,206.662L65.242,206.662C74.988,206.662 82.924,198.729 82.924,188.987L82.924,166.526C82.924,156.778 74.988,148.846 65.242,148.846L42.281,148.846M37.23,188.987L37.23,166.526C37.23,163.742 39.496,161.475 42.281,161.475L65.242,161.475C68.023,161.475 70.294,163.742 70.294,166.526L70.294,188.987C70.294,191.77 68.023,194.035 65.242,194.035L42.281,194.035C39.496,194.035 37.23,191.77 37.23,188.987" style="fill:rgb(86,160,213);fill-rule:nonzero;"/>
        </g>
    </g>
</svg>
