<?xml version="1.0" encoding="utf-8"?>
<!-- Generator: Adobe Illustrator 15.0.2, SVG Export Plug-In . SVG Version: 6.00 Build 0)  -->
<svg version="1.2" baseProfile="tiny" id="Layer_1" xmlns="http://www.w3.org/2000/svg" xmlns:xlink="http://www.w3.org/1999/xlink"
	 x="0px" y="0px" width="612px" height="792px" viewBox="0 0 612 792" overflow="inherit" xml:space="preserve">
<g transform="matrix(1,0,0,1,-102.501,-619.619)">
	<g id="Layer_1_1_" transform="matrix(4.16667,0,0,4.16667,0,0)">
		<path fill="#FFFFFF" d="M171.48,238.965v-6.07h-13.648c-0.015,0-0.033,0.001-0.053,0.001h-0.116c-1.77,0-3.362,0.769-4.462,1.989
			c-0.963,1.067-1.549,2.477-1.549,4.023v0.533c0.095,1.13,0.497,2.171,1.131,3.038c0.01,0.015,0.02,0.032,0.03,0.047
			c0.079,0.103,0.158,0.203,0.242,0.301c0.747,0.887,1.75,1.554,2.892,1.891c0.538,0.158,1.109,0.243,1.697,0.243h7.826
			c0.933,0,1.691,0.747,1.718,1.673c-0.027,0.856-0.675,1.56-1.515,1.66h-8.012c-0.704,0-1.308-0.426-1.574-1.036
			c-0.013-0.026-0.026-0.056-0.033-0.086c-0.007-0.017-0.013-0.033-0.019-0.05c-0.051-0.154-0.083-0.316-0.086-0.488
			c0,0.01,0,0.023-0.001,0.03c0-0.03-0.003-0.06-0.003-0.09v-0.056h-4.293v6.071h5.625c0.128,0.008,0.259,0.012,0.388,0.012h7.806
			c3.002,0,5.499-2.213,5.94-5.094c0.047-0.284,0.07-0.578,0.07-0.873c0-0.41-0.045-0.81-0.129-1.196
			c-0.206-0.991-0.661-1.892-1.292-2.635c-1.102-1.304-2.749-2.136-4.589-2.136h-0.013h-7.793h-0.017h-0.003
			c-0.86,0-1.57-0.634-1.697-1.457v-0.301c0-0.946,0.77-1.719,1.717-1.719h7.806c0.156,0,0.309,0.022,0.452,0.063
			c0.007,0,0.01,0.002,0.017,0.003c0.045,0.013,0.086,0.026,0.128,0.042c0.009,0.001,0.013,0.006,0.022,0.008
			c0.041,0.016,0.078,0.033,0.119,0.052c0.008,0.003,0.013,0.006,0.022,0.01c0.038,0.02,0.078,0.04,0.115,0.063
			c0.004,0.003,0.01,0.007,0.016,0.01c0.038,0.023,0.078,0.048,0.113,0.074c0.003,0.003,0.003,0.003,0.006,0.004
			c0.36,0.263,0.618,0.666,0.684,1.127c0.013,0.085,0.025,0.172,0.025,0.26v0.058H171.48"/>
		<path fill="#FFFFFF" d="M148.403,240.148v-1.212v-0.006c0-0.943,0.77-1.712,1.713-1.712h0.098v-4.268h-1.811h-4.295h-1.811v4.268
			h0.093c0.943,0,1.717,0.769,1.718,1.712v7.637c-0.001,0.95-0.775,1.715-1.718,1.715h-5.85c-0.948,0-1.716-0.772-1.716-1.719
			v-7.627c0-0.948,0.768-1.718,1.716-1.718h0.094v-4.268h-6.104v13.614c0,3.316,2.694,6.012,6.01,6.012h5.794v0.008h7.843v-4.294
			h-0.06c-0.94,0-1.713-0.769-1.713-1.712v-0.013V240.148"/>
		<path fill="#FFFFFF" d="M128.069,251.977c-0.381,0.383-0.381,1.004,0,1.388l0.883,0.876c0.38,0.384,1.002,0.384,1.384,0l0.9-0.898
			c0.383-0.38,0.383-1.001,0-1.384l-0.878-0.88c-0.383-0.384-1.008-0.384-1.388,0L128.069,251.977"/>
		<path fill="#FFFFFF" d="M115.127,232.94c-3.314,0-6.012,2.697-6.012,6.011v7.635c0,3.315,2.698,6.011,6.012,6.011h7.807
			c3.312,0,6.01-2.696,6.01-6.011v-7.635c0-3.314-2.698-6.011-6.01-6.011H115.127 M113.406,246.585v-7.635
			c0-0.946,0.774-1.716,1.72-1.716h7.807c0.948,0,1.715,0.769,1.715,1.716v7.635c0,0.948-0.767,1.718-1.715,1.718h-7.807
			C114.18,248.303,113.406,247.533,113.406,246.585"/>
		<path fill="#FFFFFF" d="M101.523,232.942v4.294h0.056c0.95,0,1.72,0.771,1.72,1.717v7.637c0,0.946-0.77,1.716-1.72,1.716h-0.096
			v4.293h6.109v-6.009v-13.648H101.523"/>
		<path fill="#FFFFFF" d="M93.943,232.973h-5.795v-0.006h-1.774H82.08h-1.775v4.294h0.058c0.943,0,1.714,0.765,1.717,1.71v7.646
			c-0.003,0.946-0.773,1.715-1.717,1.715h-0.097v4.268h7.92v-4.268H88.09c-0.943,0-1.713-0.769-1.716-1.715v-0.004v-7.634
			c0.003-0.944,0.772-1.711,1.716-1.711h5.853c0.946,0,1.718,0.769,1.718,1.716v7.629h-0.003c0,0.946-0.768,1.719-1.715,1.719
			h-0.097v4.268h6.107v-0.031h0.001v-13.584C99.954,235.67,97.258,232.973,93.943,232.973"/>
		<path fill="#FFFFFF" d="M78.876,246.613v-7.629c0-3.315-2.699-6.011-6.011-6.011h-5.851c-1.47,0-2.82,0.533-3.866,1.412
			c-1.044-0.879-2.393-1.412-3.863-1.412h-5.793v-0.006h-1.776h-4.294h-1.776v4.294h0.057c0.947,0,1.715,0.768,1.718,1.712v0.01
			l-0.001,0.002v6.416h0.001v1.217c-0.003,0.946-0.771,1.715-1.718,1.715h-0.095v4.268h7.919v-4.268h-0.096
			c-0.943,0-1.715-0.769-1.717-1.715v-0.004v-7.634c0.002-0.944,0.773-1.711,1.717-1.711h5.852c0.945,0,1.713,0.767,1.717,1.711
			v7.86c-0.112,0.84-0.83,1.493-1.699,1.493h-0.097v4.268h6.107v-5.986h-0.015v-7.629v-0.007c0.002-0.944,0.772-1.709,1.716-1.709
			h5.851c0.947,0,1.718,0.769,1.718,1.716v7.855c-0.111,0.84-0.831,1.493-1.703,1.493h-0.094v4.268h6.107v-5.986H78.876"/>
		<path fill="#FFFFFF" d="M30.612,232.942c-3.314,0-6.012,2.697-6.012,6.011v7.637c0,3.312,2.698,6.009,6.012,6.009h7.807
			c3.314,0,6.012-2.697,6.012-6.009v-7.637c0-3.314-2.698-6.011-6.012-6.011H30.612 M28.894,246.59v-7.637
			c0-0.947,0.771-1.717,1.717-1.717h7.807c0.946,0,1.718,0.771,1.718,1.717v7.637c0,0.946-0.772,1.716-1.718,1.716h-7.807
			C29.665,248.306,28.894,247.537,28.894,246.59"/>
		<path fill="#FFFFFF" d="M171.48,238.965v-6.07h-13.648c-0.015,0-0.033,0.001-0.053,0.001h-0.116c-1.77,0-3.362,0.769-4.462,1.989
			c-0.963,1.067-1.549,2.477-1.549,4.023v0.533c0.095,1.13,0.497,2.171,1.131,3.038c0.01,0.015,0.02,0.032,0.03,0.047
			c0.079,0.103,0.158,0.203,0.242,0.301c0.747,0.887,1.75,1.554,2.892,1.891c0.538,0.158,1.109,0.243,1.697,0.243h7.826
			c0.933,0,1.691,0.747,1.718,1.673c-0.027,0.856-0.675,1.56-1.515,1.66h-8.012c-0.704,0-1.308-0.426-1.574-1.036
			c-0.013-0.026-0.026-0.056-0.033-0.086c-0.007-0.017-0.013-0.033-0.019-0.05c-0.051-0.154-0.083-0.316-0.086-0.488
			c0,0.01,0,0.023-0.001,0.03c0-0.03-0.003-0.06-0.003-0.09v-0.056h-4.293v6.071h5.625c0.128,0.008,0.259,0.012,0.388,0.012h7.806
			c3.002,0,5.499-2.213,5.94-5.094c0.047-0.284,0.07-0.578,0.07-0.873c0-0.41-0.045-0.81-0.129-1.196
			c-0.206-0.991-0.661-1.892-1.292-2.635c-1.102-1.304-2.749-2.136-4.589-2.136h-0.013h-7.793h-0.017h-0.003
			c-0.86,0-1.57-0.634-1.697-1.457v-0.301c0-0.946,0.77-1.719,1.717-1.719h7.806c0.156,0,0.309,0.022,0.452,0.063
			c0.007,0,0.01,0.002,0.017,0.003c0.045,0.013,0.086,0.026,0.128,0.042c0.009,0.001,0.013,0.006,0.022,0.008
			c0.041,0.016,0.078,0.033,0.119,0.052c0.008,0.003,0.013,0.006,0.022,0.01c0.038,0.02,0.078,0.04,0.115,0.063
			c0.004,0.003,0.01,0.007,0.016,0.01c0.038,0.023,0.078,0.048,0.113,0.074c0.003,0.003,0.003,0.003,0.006,0.004
			c0.36,0.263,0.618,0.666,0.684,1.127c0.013,0.085,0.025,0.172,0.025,0.26v0.058H171.48"/>
		<path fill="#FFFFFF" d="M148.403,240.148v-1.212v-0.006c0-0.943,0.77-1.712,1.713-1.712h0.098v-4.268h-1.811h-4.295h-1.811v4.268
			h0.093c0.943,0,1.717,0.769,1.718,1.712v7.637c-0.001,0.95-0.775,1.715-1.718,1.715h-5.85c-0.948,0-1.716-0.772-1.716-1.719
			v-7.627c0-0.948,0.768-1.718,1.716-1.718h0.094v-4.268h-6.104v13.614c0,3.316,2.694,6.012,6.01,6.012h5.794v0.008h7.843v-4.294
			h-0.06c-0.94,0-1.713-0.769-1.713-1.712v-0.013V240.148"/>
		<path fill="#FFFFFF" d="M128.069,251.977c-0.381,0.383-0.381,1.004,0,1.388l0.883,0.876c0.38,0.384,1.002,0.384,1.384,0l0.9-0.898
			c0.383-0.38,0.383-1.001,0-1.384l-0.878-0.88c-0.383-0.384-1.008-0.384-1.388,0L128.069,251.977"/>
		<path fill="#FFFFFF" d="M115.127,232.94c-3.314,0-6.012,2.697-6.012,6.011v7.635c0,3.315,2.698,6.011,6.012,6.011h7.807
			c3.312,0,6.01-2.696,6.01-6.011v-7.635c0-3.314-2.698-6.011-6.01-6.011H115.127 M113.406,246.585v-7.635
			c0-0.946,0.774-1.716,1.72-1.716h7.807c0.948,0,1.715,0.769,1.715,1.716v7.635c0,0.948-0.767,1.718-1.715,1.718h-7.807
			C114.18,248.303,113.406,247.533,113.406,246.585"/>
		<path fill="#FFFFFF" d="M101.523,232.942v4.294h0.056c0.95,0,1.72,0.771,1.72,1.717v7.637c0,0.946-0.77,1.716-1.72,1.716h-0.096
			v4.293h6.109v-6.009v-13.648H101.523"/>
		<path fill="#FFFFFF" d="M93.943,232.973h-5.795v-0.006h-1.774H82.08h-1.775v4.294h0.058c0.943,0,1.714,0.765,1.717,1.71v7.646
			c-0.003,0.946-0.773,1.715-1.717,1.715h-0.097v4.268h7.92v-4.268H88.09c-0.943,0-1.713-0.769-1.716-1.715v-0.004v-7.634
			c0.003-0.944,0.772-1.711,1.716-1.711h5.853c0.946,0,1.718,0.769,1.718,1.716v7.629h-0.003c0,0.946-0.768,1.719-1.715,1.719
			h-0.097v4.268h6.107v-0.031h0.001v-13.584C99.954,235.67,97.258,232.973,93.943,232.973"/>
		<path fill="#FFFFFF" d="M78.876,246.613v-7.629c0-3.315-2.699-6.011-6.011-6.011h-5.851c-1.47,0-2.82,0.533-3.866,1.412
			c-1.044-0.879-2.393-1.412-3.863-1.412h-5.793v-0.006h-1.776h-4.294h-1.776v4.294h0.057c0.947,0,1.715,0.768,1.718,1.712v0.01
			l-0.001,0.002v6.416h0.001v1.217c-0.003,0.946-0.771,1.715-1.718,1.715h-0.095v4.268h7.919v-4.268h-0.096
			c-0.943,0-1.715-0.769-1.717-1.715v-0.004v-7.634c0.002-0.944,0.773-1.711,1.717-1.711h5.852c0.945,0,1.713,0.767,1.717,1.711
			v7.86c-0.112,0.84-0.83,1.493-1.699,1.493h-0.097v4.268h6.107v-5.986h-0.015v-7.629v-0.007c0.002-0.944,0.772-1.709,1.716-1.709
			h5.851c0.947,0,1.718,0.769,1.718,1.716v7.855c-0.111,0.84-0.831,1.493-1.703,1.493h-0.094v4.268h6.107v-5.986H78.876"/>
		<path fill="#FFFFFF" d="M30.612,232.942c-3.314,0-6.012,2.697-6.012,6.011v7.637c0,3.312,2.698,6.009,6.012,6.009h7.807
			c3.314,0,6.012-2.697,6.012-6.009v-7.637c0-3.314-2.698-6.011-6.012-6.011H30.612 M28.894,246.59v-7.637
			c0-0.947,0.771-1.717,1.717-1.717h7.807c0.946,0,1.718,0.771,1.718,1.717v7.637c0,0.946-0.772,1.716-1.718,1.716h-7.807
			C29.665,248.306,28.894,247.537,28.894,246.59"/>
	</g>
</g>
</svg>
